<?xml version="1.0" encoding="UTF-8" standalone="no"?>
<!-- Created with Inkscape (http://www.inkscape.org/) -->

<svg
   version="1.1"
   id="svg198"
   width="1395.1818"
   height="1560.0984"
   viewBox="0 0 1395.1818 1560.0984"
   sodipodi:docname="45e.svg"
   inkscape:version="1.2.2 (732a01da63, 2022-12-09, custom)"
   xmlns:inkscape="http://www.inkscape.org/namespaces/inkscape"
   xmlns:sodipodi="http://sodipodi.sourceforge.net/DTD/sodipodi-0.dtd"
   xmlns="http://www.w3.org/2000/svg"
   xmlns:svg="http://www.w3.org/2000/svg">
  <defs
     id="defs202" />
  <sodipodi:namedview
     id="namedview200"
     pagecolor="#ffffff"
     bordercolor="#000000"
     borderopacity="0.25"
     inkscape:showpageshadow="2"
     inkscape:pageopacity="0.0"
     inkscape:pagecheckerboard="0"
     inkscape:deskcolor="#d1d1d1"
     showgrid="false"
     inkscape:zoom="0.37416482"
     inkscape:cx="697.55355"
     inkscape:cy="867.26486"
     inkscape:window-width="1846"
     inkscape:window-height="1016"
     inkscape:window-x="0"
     inkscape:window-y="0"
     inkscape:window-maximized="1"
     inkscape:current-layer="layer1" />
  <g
     inkscape:groupmode="layer"
     id="layer1"
     inkscape:label="Layer 1"
     transform="translate(-802.11362,-194.93758)">
    <path
       id="path316-3"
       style="fill:#ff0000;stroke-width:1.33333"
       d="m 1601.6878,195.09576 c -2.5458,0.2235 -4.8196,0.68006 -7.1093,1.34571 -8.4062,2.44367 -14.2279,7.79516 -18.4981,17.00586 -3.4132,7.36207 -10.1544,14.19125 -15.5,15.70312 -2.8598,0.80881 -8.5817,-0.0552 -21.248,-3.20898 -73.3462,-18.26258 -132.2873,-12.77236 -188.5664,17.56445 -16.0104,8.63019 -35.9337,21.69467 -37.4727,24.57031 -1.8917,3.53467 -1.5783,8.86299 0.5703,9.6875 1.0252,0.39337 12.2138,0.0602 24.8613,-0.74023 48.7336,-3.08409 91.525,4.37261 128.6036,22.41015 7.017,3.4136 20.6994,11.45389 30.4043,17.86719 21.2572,14.04802 26.4734,16.79025 37.1191,19.51758 14.3919,3.687 25.8002,0.35267 39.1504,-11.44141 9.6316,-8.50903 15.7428,-11.4257 28.2676,-13.49414 10.714,-1.76937 19.2508,-0.26366 40.3965,7.12696 18.5981,6.5003 40.9761,19.26122 49.0351,27.96093 l 3.0352,3.27539 -3.0352,8.49414 c -3.1515,8.81985 -3.7977,9.46796 -17.5332,17.56055 -5.4745,3.22545 -6.168,4.15905 -6.168,8.31641 0,4.43759 0.2821,4.73047 5.3633,5.54297 2.9496,0.47166 5.5855,1.22798 5.8594,1.68164 0.2737,0.45368 -2.9333,10.72427 -7.127,22.82422 l -7.625,22 -17.2343,3.0625 c -240.7916,42.77798 -414.3517,89.47256 -571.9043,153.86523 -81.06682,33.1324 -200.21049,93.68662 -202.00003,102.66602 -0.39158,1.96485 -3.96694,6.10845 -8.66602,10.04296 -11.56328,9.68203 -14.76163,13.44511 -18.63671,21.91797 -11.93512,26.09583 -8.75249,59.95983 8.00585,85.16797 15.98439,24.04393 43.92114,32.66487 71.6875,22.125 11.12285,-4.22211 11.34351,-3.91963 9.1504,12.55274 -3.94545,29.63355 -14.93969,54.36441 -37.73047,84.86914 -25.60392,34.26988 -44.06092,67.93339 -67.47461,123.06449 -10.48468,24.6877 -12.63673,31.0725 -15.49805,46 -9.20839,48.0397 -12.10074,77.4655 -12.05664,122.666 0.074,75.9063 12.42574,132.0479 42.54297,193.3711 34.5153,70.2787 88.54509,128.4931 166.77341,179.6894 34.5758,22.6283 64.0433,37.7216 105.2364,53.8985 148.7826,58.4285 329.6632,98.5362 464,102.8867 74.1971,2.4029 134.5679,-3.4469 183.8554,-17.8184 52.0027,-15.1624 97.0896,-42.885 121.4922,-74.6972 4.3918,-5.7256 13.1787,-15.9563 19.5234,-22.7344 25.7177,-27.4726 38.5794,-52.0636 49.086,-93.8398 l 3.5,-13.9102 10.6855,-5.4219 c 13.0968,-6.6458 24.4952,-15.6109 38.8028,-30.5136 24.4095,-25.426 47.0762,-61.0372 57.4355,-90.2422 2.2111,-6.2333 6.8237,-15.4957 10.25,-20.5821 12.5489,-18.6287 23.1941,-45.0502 28.9121,-71.7539 2.3327,-10.8939 2.9464,-18.3057 3.0254,-36.5488 0.054,-12.5865 -0.2521,-23.2361 -0.6797,-23.666 -0.4275,-0.43 -13.1996,3.7255 -28.3828,9.2344 -64.6755,23.4655 -118.8028,37.1287 -178.0058,44.9336 -29.6342,3.9062 -101.2019,4.2676 -129.4004,0.6523 -9.8459,-1.2623 -18.1904,-2.5849 -18.543,-2.9375 -0.8756,-0.8756 56.926,-151.6068 58.8828,-153.5508 1.1878,-1.1801 6.0255,-0.5027 20.2266,2.8301 63.1579,14.8224 117.3873,20.308 186.6679,18.8848 48.0421,-0.9869 56.6661,-1.6609 56.6661,-4.4297 0,-1.0645 -2.5056,-6.2265 -5.5684,-11.4707 -17.4626,-29.8999 -32.2425,-70.7322 -37.2559,-102.9297 -2.3777,-15.2705 -2.0234,-45.4175 0.711,-60.66606 4.4883,-25.02831 15.4506,-52.02538 30.4433,-74.96289 11.4014,-17.44348 22.1923,-30.00723 43.1797,-50.27148 10.7361,-10.36631 19.2893,-19.07545 19.0059,-19.35547 -0.6365,-0.6291 -53.4006,-5.44964 -80.5156,-7.35547 -31.4389,-2.20972 -74.2993,-4.04973 -94.334,-4.05273 -14.0069,-0.002 -18.3321,-0.40495 -18.3321,-1.70899 0,-1.86895 12.8062,-35.5445 13.9532,-36.6914 0.3901,-0.39007 8.9604,0.2805 19.0449,1.49023 42.9417,5.15132 82.0851,7.57322 122.457,7.57422 32.465,9.4e-4 63.211,-1.36276 63.211,-2.80273 0,-0.58082 -3.094,-5.13813 -6.877,-10.12696 -16.0689,-21.19173 -27.5508,-42.43362 -34.4492,-63.73633 -7.0008,-21.61867 -7.1542,-47.18127 -0.4024,-67.33398 6.0618,-18.09302 19.2136,-37.76421 36.7715,-55.00195 11.1661,-10.9626 31.39,-26.78914 43.9668,-34.40625 4.1697,-2.52537 7.5982,-5.22646 7.6192,-6.00196 0.055,-2.04513 -67.5198,-7.13165 -129.7071,-9.76367 -14.5269,-0.61484 -26.9237,-1.65166 -27.5468,-2.30469 -0.6331,-0.66329 12.6418,-37.03596 30.08,-82.41992 17.1667,-44.67743 31.211,-81.96356 31.211,-82.85742 0,-1.81118 -2.9424,-3.24414 -6.6641,-3.24414 -1.346,0 -7.0439,-2.71754 -12.6621,-6.03906 -25.0968,-14.83755 -50.7822,-25.96612 -84.6738,-36.6875 -18.8483,-5.96244 -23.6224,-6.98153 -33.3321,-7.11524 -15.0102,-0.20671 -20.4799,2.55986 -27.3203,13.82032 -5.1511,8.47964 -11.0924,13.91836 -16.7441,15.32812 -2.3472,0.58547 -8.5176,-1.05903 -19.9649,-5.31836 -35.5142,-13.21428 -63.2432,-19.14292 -94.8164,-20.27539 -29.5517,-1.05999 -53.2822,2.2253 -79.4101,10.99609 -5.5507,1.86332 -10.3679,3.1106 -10.7071,2.77149 -0.3391,-0.33911 7.2723,-25.9246 16.9141,-56.85742 9.6419,-30.93283 17.3471,-57.44473 17.1231,-58.91407 -0.3998,-2.62134 -5.8051,-6.07832 -13.7422,-8.78906 -2.2,-0.75136 -12.8691,-5.01266 -23.711,-9.4707 -23.5318,-9.67631 -44.3504,-15.8966 -71.9121,-21.48633 -20.2999,-4.11698 -30.384,-5.53769 -38.0215,-4.86719 z m 105.9004,197.24805 c 2.2621,-0.003 5.6176,0.28801 10.5782,0.87305 53.0688,6.25873 92.2348,23.34123 134.375,58.60547 17.3991,14.56008 23.2983,18.17641 34.2207,20.97461 13.5044,3.45968 24.5864,0.45541 39.0488,-10.58399 11.198,-8.54762 25.7105,-10.92858 41.5762,-6.82226 18.3678,4.75394 48.075,21.60128 65.1191,36.92968 l 7.8418,7.05078 -11.6465,27.31446 c -6.4053,15.02286 -12.0854,27.78588 -12.623,28.36328 -0.5376,0.5774 -43.0639,1.17804 -94.502,1.33398 l -93.5234,0.28321 -12.875,12.66796 c -7.0812,6.96667 -12.5183,11.631 -12.0821,10.36719 0.4362,-1.26382 8.9646,-15.56617 18.9532,-31.7832 9.9885,-16.21704 17.8538,-29.79261 17.4765,-30.16992 -1.0581,-1.05814 -125.7851,7.34913 -160.0879,10.79101 -9.5914,0.96233 -17.8336,1.38554 -18.3164,0.93946 -1.1169,-1.03198 40.354,-134.1548 42.4434,-136.24414 0.5914,-0.59145 1.7613,-0.88801 4.0234,-0.89063 z m -47.375,51.39258 c 0.9737,-0.0927 1.1192,0.13208 1.1192,0.48437 0,1.94094 -29.6019,86.93633 -30.7285,88.23047 -0.5354,0.61492 -9.5894,2.22958 -20.1211,3.58789 -76.2567,9.83496 -145.5304,24.18455 -209.8164,43.46094 -38.8695,11.65507 -58.6213,23.50262 -107.2676,64.34766 -29.5861,24.84113 -70.6798,67.11445 -76.8594,79.06445 -1.2515,2.42005 -2.5623,8.42335 -2.9141,13.33984 -0.6098,8.52262 -0.4544,9.12364 3.3243,12.90235 2.1798,2.17979 6.3079,4.58818 9.1738,5.35351 2.8659,0.76532 72.1107,7.39522 153.8769,14.73242 156.6317,14.05519 159.5697,14.33641 161.3418,15.43165 0.6164,0.38091 -1.1454,7.43639 -3.916,15.67773 -4.9435,14.70488 -5.1099,14.978 -8.8984,14.6582 -3.8494,-0.32493 -225.3922,-24.36241 -303.8613,-32.96875 -22.7334,-2.49334 -45.6201,-4.94394 -50.8594,-5.44531 l -9.5254,-0.91016 -19.334,19.15821 c -36.8956,36.56048 -58.3847,72.33199 -71.0078,118.20312 -6.1586,22.38004 -8.5817,39.44877 -9.5078,66.95508 -1.7609,52.29704 8.7132,108.59984 32.0937,172.51174 4.048,11.0651 6.302,14.9362 14.041,24.127 15.2062,18.0571 29.1476,29.1834 49.1543,39.2285 47.0746,23.6345 121.3856,51.4447 174.9454,65.4687 14.2995,3.7443 27.2755,7.3283 28.8339,7.9649 2.765,1.1293 2.5314,2.0198 -9.6308,36.8242 -6.8552,19.6176 -12.93,36.1226 -13.5,36.6758 -1.2702,1.2328 -31.1937,-8.1062 -53.4473,-16.6797 -74.4297,-28.6752 -131.7015,-65.2777 -180.9648,-115.6563 -48.7904,-49.8941 -79.7089,-107.1777 -92.5762,-171.5176 -5.5712,-27.8565 -7.2302,-49.1201 -6.3027,-80.7988 1.0575,-36.11841 4.9378,-61.63661 15.6347,-102.81446 14.7103,-56.62783 13.5522,-94.57805 -3.9883,-130.66796 -9.2226,-18.97682 -17.3013,-29.00521 -31.498,-39.10352 -21.38211,-15.20941 -42.00668,-22.89648 -61.43945,-22.89648 -5.38269,0 -9.78711,-0.49796 -9.78711,-1.10743 0,-2.12436 44.98092,-15.38574 68.66601,-20.24414 61.48175,-12.61135 118.51735,-11.66719 172.66605,2.85938 8.4334,2.26244 16.6553,4.41311 18.2695,4.7793 2.2675,0.51431 6.3339,-2.25648 17.8828,-12.18165 87.7562,-75.41882 220.0213,-138.37048 417.1817,-198.56054 36.2521,-11.0673 46.6258,-14.19645 49.5468,-14.47461 z m 76.3496,300.18164 c 0.4087,0.0609 0.8791,0.51295 1.4082,1.36914 0.4377,0.7082 12.6246,5.15544 27.0801,9.88281 44.1024,14.42269 77.2835,23.25424 120.6328,32.10352 15.2264,3.10825 28.0192,5.984 28.4278,6.39258 0.9018,0.9017 -14.9377,38.33753 -17.1856,40.61718 -1.1452,1.16147 -16.2173,2.00193 -53.5937,2.98828 -28.6,0.75475 -61.2996,1.65456 -72.666,2 -19.2116,0.58387 -26.9518,-0.0764 -109.9356,-9.36914 -49.0979,-5.49812 -89.5642,-10.29076 -89.9238,-10.65039 -0.8578,-0.8578 7.6876,-28.86739 9.3183,-30.54297 0.8092,-0.83148 31.9995,1.44164 87.5664,6.38282 47.4698,4.22107 88.1086,7.62058 90.3086,7.55468 l 4,-0.11914 -3.3339,-2.26367 c -16.5484,-11.23664 -23.9494,-25.6173 -23.9844,-46.59765 -0.011,-6.58498 0.6547,-9.93087 1.8808,-9.74805 z m -68.8261,269.18947 c 0.4025,-0.026 0.3968,0.6206 -0.1602,2.0723 -0.3896,1.0153 -1.9827,8.364 -3.541,16.332 -1.5583,7.968 -3.7037,18.6124 -4.7676,23.6523 -4.5024,21.3289 -1.4934,36.3015 8.3985,41.7832 12.0698,6.6889 60.309,25.999 87.3339,34.961 7.15,2.3711 13,5.0255 13,5.8984 0,0.8729 -9.565,24.0734 -21.2539,51.5567 l -21.2519,49.9707 -9.0801,0.2851 c -17.2291,0.5436 -39.0091,-7.7684 -53.4473,-20.3984 -14.6215,-12.7908 -26.6404,-32.9645 -32.5019,-54.5547 -2.4081,-8.8697 -2.9167,-14.484 -3.0137,-33.332 -0.074,-14.1937 0.5629,-26.1555 1.7031,-32 4.6633,-23.9068 17.973,-56.7322 31.5118,-77.7129 3.3222,-5.1483 6.1846,-8.4573 7.0703,-8.5137 z m 48.0195,246.7695 c 0.1594,0.011 0.2441,0.062 0.2441,0.1582 0,0.7677 -4.5749,12.2125 -10.166,25.4317 l -10.166,24.0351 -8.4258,5.3203 c -11.2395,7.0984 -15.8944,12.7107 -22.6914,27.3555 -9.185,19.7893 -18.8028,28.3124 -42.1015,37.3106 -15.0249,5.8026 -32.4635,8.2225 -66.4493,9.2226 -13.5663,0.3992 -26.4679,0.8773 -28.6679,1.0625 -8.4379,0.71 -54.3754,-1.6244 -72.7539,-3.6972 -19.2775,-2.1744 -50.5304,-6.8411 -54.9121,-8.1993 -1.2834,-0.3978 -2.334,-1.545 -2.334,-2.5488 0,-3.5066 21.712,-72.011 23.4004,-73.832 1.3954,-1.5049 3.5926,-1.5745 12.1523,-0.3828 38.7067,5.3886 99.3985,6.4826 133.7813,2.4101 53.3602,-6.3204 97.3378,-18.7687 137.4218,-38.9004 5.7327,-2.8791 10.5524,-4.8203 11.668,-4.7461 z" />
    <path
       style="fill:#000000;stroke-width:1.33333"
       d="m 1580.6666,1754.5121 c -134.3373,-4.3505 -315.2163,-44.4589 -463.9999,-102.8879 -41.1931,-16.1769 -70.6607,-31.2686 -105.2365,-53.8969 -78.22882,-51.1968 -132.25798,-109.4103 -166.77348,-179.6895 -30.11738,-61.3237 -42.4686,-117.4644 -42.5426,-193.3712 -0.0441,-45.2005 2.84812,-74.6264 12.05656,-122.6666 2.86132,-14.9275 5.01231,-21.3123 15.49704,-46 23.41384,-55.1311 41.87132,-88.7948 67.47534,-123.06488 22.79093,-30.50488 33.785,-55.23397 37.73045,-84.86767 2.19316,-16.47242 1.97265,-16.77492 -9.15025,-12.55276 -27.76651,10.53992 -55.70256,1.91722 -71.687,-22.12681 -16.75844,-25.20829 -19.94204,-59.07168 -8.00687,-85.16761 3.87513,-8.47291 7.07389,-12.23448 18.63727,-21.91656 4.69908,-3.93456 8.27508,-8.07869 8.66666,-10.04359 1.78954,-8.9794 120.93291,-69.5341 201.99998,-102.66665 157.5536,-64.39297 331.1098,-111.08654 571.9024,-153.86477 l 17.2359,-3.06204 7.6248,-22 c 4.1937,-12.1 7.4009,-22.37119 7.1272,-22.82487 -0.2739,-0.45366 -2.9111,-1.21076 -5.8607,-1.68242 -5.0812,-0.8125 -5.3629,-1.10366 -5.3629,-5.5413 0,-4.15736 0.6932,-5.09212 6.1677,-8.31757 13.7355,-8.09264 14.3824,-8.74055 17.5339,-17.5604 l 3.0349,-8.49387 -3.0349,-3.27624 c -8.059,-8.69976 -30.4364,-21.45934 -49.035,-27.95969 -21.1457,-7.39062 -29.6829,-8.8969 -40.3969,-7.12753 -12.5248,2.06844 -18.6349,4.9854 -28.2665,13.49448 -13.3502,11.79413 -24.7599,15.12845 -39.1518,11.44145 -10.6457,-2.72733 -15.8612,-5.46967 -37.1189,-19.51774 -9.7049,-6.41335 -23.3864,-14.45359 -30.4034,-17.86719 -37.0786,-18.03764 -79.8715,-25.49469 -128.6051,-22.4106 -12.648,0.80041 -23.835,1.13345 -24.8602,0.74008 -2.1486,-0.82451 -2.4627,-6.15292 -0.571,-9.68759 1.539,-2.87564 21.4632,-15.93854 37.4736,-24.56878 56.2796,-30.33696 115.2207,-35.82718 188.5669,-17.56455 12.6663,3.15379 18.3871,4.01784 21.2469,3.20903 5.3456,-1.51187 12.0868,-8.3416 15.5,-15.70372 4.2702,-9.2107 10.0912,-14.56254 18.4974,-17.00626 9.1589,-2.66257 18.065,-1.96761 45.1316,3.5217 27.5617,5.58973 48.3794,11.80977 71.9117,21.48613 10.8419,4.45809 21.5124,8.72037 23.7124,9.47173 7.9371,2.71074 13.3409,6.16703 13.7407,8.78842 0.224,1.46934 -7.4815,27.98034 -17.1234,58.91332 -9.6418,30.93297 -17.2532,56.51923 -16.9141,56.85834 0.3392,0.33911 5.1581,-0.90796 10.7088,-2.77128 26.1279,-8.77084 49.8577,-12.05707 79.4099,-10.99708 31.5732,1.13247 59.3006,7.06203 94.8153,20.27636 11.4473,4.25933 17.6184,5.90288 19.9656,5.31741 5.6517,-1.40976 11.5924,-6.84808 16.7435,-15.32777 6.8404,-11.26051 12.3097,-14.02731 27.3204,-13.8206 9.7097,0.13371 14.485,1.15308 33.3333,7.11552 33.8921,10.72143 59.5753,21.84959 84.6721,36.68719 5.6182,3.32157 11.3163,6.03922 12.6623,6.03922 3.7217,0 6.6656,1.43268 6.6656,3.24386 0,0.89386 -14.0456,38.17966 -31.2123,82.85734 -17.4382,45.38416 -30.7124,81.75611 -30.0793,82.41945 0.6231,0.65303 13.0187,1.69038 27.5456,2.30522 62.1873,2.63202 129.7631,7.71894 129.7081,9.76412 -0.021,0.7755 -3.4493,3.47621 -7.619,6.00158 -12.5768,7.61716 -32.8015,23.44378 -43.9676,34.40643 -17.5579,17.23784 -30.7084,36.90888 -36.7702,55.002 -6.7518,20.15281 -6.5994,45.71451 0.4014,67.33333 6.8984,21.30281 18.3797,42.54545 34.4486,63.73728 3.783,4.98883 6.878,9.54581 6.878,10.12663 0,1.44002 -30.7458,2.80292 -63.2108,2.80198 -40.3724,-10e-4 -79.5158,-2.42193 -122.458,-7.57325 -10.0845,-1.20973 -18.6545,-1.88036 -19.0446,-1.49029 -1.147,1.1469 -13.9532,34.82186 -13.9532,36.69081 0,1.30404 4.3264,1.70732 18.3333,1.70885 20.0352,0.003 62.8944,1.84391 94.3333,4.05363 27.1155,1.90583 79.8787,6.72535 80.5152,7.35445 0.2834,0.28002 -8.2689,8.99068 -19.005,19.35704 -20.9874,20.26435 -31.7782,32.82728 -43.1796,50.27086 -14.9927,22.93761 -25.9568,49.93355 -30.4451,74.96201 -2.7344,15.24858 -3.0868,45.39618 -0.7091,60.66668 5.0134,32.198 19.7924,73.0305 37.255,102.9304 3.0628,5.2442 5.5686,10.4059 5.5686,11.4704 0,2.7688 -8.6245,3.443 -56.6666,4.4299 -69.2811,1.4232 -123.5083,-4.0632 -186.6667,-18.8856 -14.2011,-3.3328 -19.0403,-4.0098 -20.2281,-2.8297 -1.9568,1.944 -59.7582,152.676 -58.8826,153.5516 0.3526,0.3526 8.6967,1.6739 18.5426,2.9362 28.199,3.6153 99.7668,3.2546 129.401,-0.6521 59.2035,-7.8049 113.3306,-21.4681 178.0066,-44.9341 15.1832,-5.5089 27.9557,-9.6643 28.3832,-9.2343 0.4276,0.4299 0.7328,11.0797 0.6785,23.6662 -0.079,18.2431 -0.6924,25.6559 -3.0251,36.5498 -5.718,26.7037 -16.3641,53.1241 -28.913,71.7533 -3.4263,5.0864 -8.0387,14.348 -10.2498,20.5813 -10.3593,29.2055 -33.0241,64.8175 -57.4341,90.2435 -14.3076,14.9032 -25.7068,23.8666 -38.8036,30.5124 l -10.6863,5.4226 -3.4984,13.9107 c -10.5066,41.7767 -23.3697,66.3665 -49.0874,93.8391 -6.3452,6.7781 -15.1302,17.0085 -19.522,22.7341 -24.4026,31.8127 -69.4904,59.5339 -121.4931,74.6968 -49.288,14.3715 -109.6575,20.2225 -183.8551,17.8196 z M 1672,1749.3465 c 88.1126,-8.4753 150.8853,-32.1332 193.3124,-72.8557 11.0394,-10.596 30.8897,-33.8242 28.9053,-33.8242 -0.3404,0 -7.1287,2.0942 -15.0849,4.6538 -151.6954,48.8 -375.2231,44.079 -570.4661,-12.0484 -94.0987,-27.0511 -173.8222,-61.9239 -243.3334,-106.4396 -122.10304,-78.196 -193.81267,-176.5998 -212.90968,-292.1658 -3.74098,-22.6386 -3.39327,-72.7663 0.66237,-95.4911 8.30592,-46.5403 26.34385,-89.8015 54.69407,-131.1755 21.72357,-31.70315 24.78312,-36.69652 34.73668,-56.6926 14.84721,-29.82712 24.25792,-56.54173 30.99044,-87.97408 2.42473,-11.32041 3.00816,-18.33839 3.04822,-36.66667 0.0552,-25.24181 -1.39828,-33.10813 -8.99206,-48.66666 -8.87924,-18.19226 -31.63879,-35.7564 -44.46031,-34.31123 -8.66501,0.97667 -20.03259,7.08593 -23.77221,12.77589 -9.31299,14.16996 -5.05618,35.49834 8.18949,41.03272 6.03627,2.52212 10.45968,1.18928 16.67265,-5.02369 2.8272,-2.8272 5.74036,-5.14036 6.4737,-5.14036 2.889,0 1.09318,5.04299 -3.31851,9.31896 -4.03909,3.91484 -5.73837,4.58733 -12.90068,5.1054 -10.96721,0.79329 -15.92401,-1.84807 -20.42748,-10.88535 -3.71212,-7.44926 -4.57688,-21.07949 -1.93983,-30.57545 3.0992,-11.16017 15.01264,-19.02331 31.098,-20.52537 7.93484,-0.74097 9.0142,-0.48251 18.24807,4.36974 17.93867,9.42651 29.94921,25.41186 36.15839,48.12476 3.82596,13.99519 4.1409,49.64678 0.59836,67.73398 -6.72196,34.3204 -15.84043,61.36672 -31.5473,93.57241 -8.67649,17.79049 -10.87502,23.63425 -12.5406,33.33333 -8.79529,51.21707 -4.70758,100.86047 12.47923,151.55507 12.15139,35.842 31.13891,71.9177 56.53939,107.4229 16.4174,22.9486 54.609,57.3276 99.553,89.6147 137.976,99.1202 332.5317,165.3021 513.6159,174.7166 72.8136,3.7856 155.7575,-5.9429 230.2848,-27.0102 68.225,-19.2859 130.7122,-45.9406 200.12,-85.3639 19.7651,-11.2264 20.9319,-12.1239 26.1708,-20.1289 11.9707,-18.2914 22.9359,-45.784 27.8039,-69.712 3.8603,-18.9744 5.0971,-42.7254 2.6492,-50.8713 -0.3012,-1.0024 -6.6467,0.7602 -18.2201,5.061 -59.6731,22.1752 -121.989,38.2755 -174.4246,45.0654 -53.9029,6.98 -97.2512,7.1453 -152,0.5797 -28.3705,-3.4022 -49.336,-1.2997 -64.6072,6.4791 -6.7329,3.4296 -19.3926,15.5011 -22.2912,21.2555 -1.2274,2.4368 -4.1546,8.5779 -6.5046,13.6468 -5.2351,11.2918 -12.6207,18.7143 -25.1963,25.3226 -22.7463,11.9529 -42.2612,15.1701 -99.4007,16.3872 -92.9593,1.98 -180.699,-13.2927 -263.3333,-45.838 -68.9348,-27.1497 -125.7246,-63.2979 -171.3333,-109.0582 -83.8166,-84.0951 -116.73217,-189.7303 -97.8506,-314.02981 1.5038,-9.9 5.9899,-30.9 9.9692,-46.66667 14.0053,-55.49265 14.5895,-85.09035 2.329,-118 -4.3083,-11.56436 -14.0435,-28.35701 -21.11428,-36.4208 -12.0474,-13.7394 -38.14126,-29.5339 -56.66666,-34.3001 -12.66244,-3.25779 -32.52108,-2.18134 -43.70506,2.36908 -11.43517,4.65261 -21.17072,10.7383 -31.58673,19.74486 -11.12715,9.62146 -16.89715,17.17408 -20.83631,27.27363 -2.69528,6.9104 -3.11201,10.27001 -3.05964,24.66666 0.0524,14.40579 0.52502,17.97483 3.48392,26.31018 9.76026,27.49498 29.22528,45.10534 51.62736,46.7082 10.72639,0.76748 18.67562,-0.92632 30.26708,-6.4492 4.50484,-2.14638 8.94062,-3.90251 9.85727,-3.90251 2.13316,0 0.75149,22.50397 -2.28572,37.22875 -4.57919,22.2005 -16.01123,47.90044 -28.58995,64.27197 -11.50825,14.97829 -21.61793,29.37013 -30.28294,43.10988 -10.82662,17.16732 -31.30699,58.29848 -45.26696,90.91048 -11.92598,27.8604 -15.61363,42.3683 -21.47306,84.4789 -6.15477,44.2332 -7.05556,100.0192 -2.21753,137.3333 16.69728,128.7811 83.76075,230.6564 204.06831,309.998 43.4008,28.6223 73.0909,43.1691 133.034,65.1806 140.4857,51.5869 291.0266,84.7632 420.9659,92.7725 22.791,1.4048 85.3628,0.6497 105.3334,-1.2712 z m 36.6666,-74.6392 c 65.3784,-5.4579 123.4492,-16.5333 173.0519,-33.0051 l 22.3852,-7.4336 8.1731,-10.1342 c 10.8058,-13.399 18.9356,-26.0732 24.3614,-37.9796 7.1204,-15.6246 17.5694,-50.3283 15.9448,-52.9568 -0.342,-0.5534 -7.063,2.0126 -14.9357,5.7021 -95.6893,44.8441 -198.1585,63.7337 -323.5336,59.6415 -114.394,-3.7339 -232.0644,-28.1207 -353.447,-73.2506 -75.1487,-27.9401 -115.1604,-48.4332 -175.3334,-89.8016 -56.4163,-38.7857 -106.45979,-87.2829 -138.89366,-134.6022 -18.1565,-26.4893 -40.88212,-81.965 -49.66237,-121.2312 -7.33019,-32.7813 -8.02145,-39.4644 -7.96339,-76.9894 0.0393,-25.4601 0.61459,-38.407 2.05844,-46.3333 1.10207,-6.05 1.6005,-11 1.1076,-11 -2.33201,0 -19.59285,39.9685 -25.91168,60 -11.49678,36.4464 -15.87046,81.653 -11.42013,118.039 13.78295,112.6897 84.74321,215.5182 203.54409,294.9561 132.9847,88.9218 319.3557,145.7173 517.1411,157.5954 24.9533,1.4986 110.1173,0.7215 133.3333,-1.2165 z m -22,-80.0619 c 95.0306,-5.359 174.7432,-24.5954 249.1722,-60.1305 10.5769,-5.0499 20.7374,-9.1816 22.5789,-9.1816 1.8413,0 6.1007,-1.5981 9.4651,-3.5515 21.6102,-12.5464 46.9501,-38.552 67.6473,-69.4245 9.382,-13.9945 25.2575,-44.9825 26.6107,-51.9424 l 0.8265,-4.2519 -19.8169,11.2539 c -101.8272,57.8264 -206.2238,92.4185 -318.4838,105.5305 -29.2088,3.4116 -124.2218,3.4076 -154.6666,0 -109.8468,-12.3182 -215.2569,-40.325 -314.6667,-83.6046 -25.0331,-10.8986 -73.8289,-35.9634 -98,-50.3395 -70.326,-41.8273 -134.0594,-93.7538 -159.44394,-129.9061 -52.81032,-75.2116 -76.83546,-152.2619 -71.29141,-228.6365 0.8174,-11.2604 1.98979,-23.16912 2.60531,-26.46381 0.61552,-3.29471 0.74658,-5.96749 0.29125,-5.93953 -0.87812,0.0539 -5.80773,6.98394 -20.35557,28.61584 -8.30494,12.349 -9.16562,14.3176 -11.65856,26.6667 -8.60612,42.631 -7.93894,85.0473 2.04374,129.9312 8.68663,39.0566 31.71278,96.7117 48.49746,121.4326 36.47844,53.7263 94.96962,108.2529 163.31172,152.2425 47.8723,30.8139 70.8988,42.5278 129.1038,65.6775 150.9289,60.0284 311.8355,89.6071 446.2295,82.0283 z M 1556,1388.7117 c 33.9858,-1.0001 51.4241,-3.4207 66.449,-9.2233 23.2991,-8.9982 32.9164,-17.5211 42.1014,-37.3104 6.797,-14.6448 11.4521,-20.2564 22.6916,-27.3548 l 8.4264,-5.3218 10.1658,-24.0349 c 5.5911,-13.2192 10.1658,-24.6631 10.1658,-25.4308 0,-0.7677 -5.3604,1.2963 -11.912,4.5867 -40.0844,20.1317 -84.0608,32.5803 -137.4214,38.9007 -34.3828,4.0725 -95.0754,2.9796 -133.7821,-2.409 -8.5597,-1.1917 -10.7566,-1.1226 -12.152,0.3823 -1.6884,1.821 -23.3992,70.3254 -23.3992,73.832 0,1.0038 1.05,2.1506 2.3334,2.5484 4.3821,1.3582 35.6349,6.0248 54.9124,8.1992 18.3789,2.0732 64.3163,4.4082 72.7542,3.6982 2.2,-0.1852 15.1,-0.6633 28.6667,-1.0625 z m -164.314,-14.3784 c 1.1159,-1.3817 22.8547,-69.5884 23.4572,-73.5982 0.2,-1.3307 -0.9288,-1.613 -26.4765,-6.6209 -11.9154,-2.3356 -16.383,-2.7505 -17.5003,-1.6252 -0.8251,0.831 -3.0117,6.011 -4.8592,11.511 -1.8475,5.5 -7.2949,21.2436 -12.1055,34.9857 -8.491,24.2561 -8.668,25.0277 -6.0616,26.4225 2.0859,1.1164 37.4956,10.1103 41.3634,10.5062 0.4601,0.047 1.4422,-0.6644 2.1825,-1.5811 z m -37.8163,-48.2073 c 12.1622,-34.8044 12.3954,-35.6963 9.6304,-36.8256 -1.5584,-0.6366 -14.5334,-4.2209 -28.8334,-7.9652 -53.5598,-14.024 -127.8705,-41.8323 -174.9451,-65.4673 -20.0072,-10.0451 -33.9494,-21.172 -49.1556,-39.2296 -7.7395,-9.1908 -9.9915,-13.0608 -14.0395,-24.1259 -23.381,-63.9124 -33.8558,-120.2149 -32.0949,-172.51242 0.9261,-27.50646 3.3503,-44.57571 9.5089,-66.95585 12.6231,-45.87138 34.1112,-81.64189 71.0068,-118.20257 l 19.3339,-19.15843 9.5261,0.91159 c 5.2393,0.50137 28.126,2.95159 50.8594,5.44493 78.4696,8.60639 300.0111,32.64286 303.8605,32.96779 3.7885,0.3198 3.9545,0.0465 8.898,-14.65848 2.7706,-8.24139 4.533,-15.29605 3.9166,-15.67701 -1.7721,-1.09524 -4.7096,-1.37619 -161.3418,-15.43143 -81.7667,-7.33725 -151.0115,-13.96663 -153.8774,-14.73195 -2.8659,-0.76533 -6.9942,-3.17501 -9.174,-5.35485 -3.7787,-3.77871 -3.9336,-4.37983 -3.3238,-12.9025 0.3518,-4.91654 1.6635,-10.91922 2.915,-13.33927 6.1796,-11.95005 47.2737,-54.22267 76.8598,-79.06395 48.6468,-40.84524 68.3976,-52.6936 107.2671,-64.34872 64.2865,-19.27649 133.5586,-33.62521 209.8153,-43.46022 10.5317,-1.35831 19.5866,-2.97278 20.122,-3.5877 1.1266,-1.29414 30.7293,-86.29037 30.7293,-88.23131 0,-1.40916 -2.3299,-0.7658 -50.6667,13.99066 -197.1614,60.19036 -329.4249,123.14251 -417.1816,198.56173 -11.5489,9.92522 -15.6159,12.69547 -17.8834,12.18111 -1.6142,-0.36619 -9.8349,-2.51687 -18.2683,-4.77931 -54.1487,-14.52662 -111.1844,-15.47129 -172.66664,-2.85984 -23.68524,4.8584 -68.66667,18.11971 -68.66667,20.24412 0,0.60947 4.40403,1.10814 9.78672,1.10814 19.43287,0 40.05836,7.68597 61.44057,22.89548 14.19672,10.09836 22.27522,20.12764 31.49832,39.10451 17.5405,36.09011 18.6988,74.03854 3.9885,130.66667 -10.6969,41.17805 -14.5775,66.69668 -15.635,102.81524 -0.9275,31.67874 0.731,52.94224 6.3022,80.79924 12.8673,64.3399 43.7859,121.6233 92.5763,171.5179 49.2638,50.3786 106.5341,86.9805 180.9643,115.6557 22.2536,8.5735 52.1774,17.9114 53.4476,16.6786 0.57,-0.5532 6.645,-17.0564 13.5002,-36.674 z m 357.2148,-20.2285 c 2.0632,-0.4926 10.9844,-1.2711 19.8248,-1.7299 l 16.0737,-0.8343 29.2163,-75.9604 c 16.0691,-41.7783 29.0475,-76.8373 28.8411,-77.909 -0.4398,-2.2838 -30.2156,-11.5238 -31.78,-9.8618 -1.4998,1.5934 -41.2604,95.7503 -41.2604,97.7087 0,1.209 1.2318,1.4229 4.3333,0.7526 2.3833,-0.515 6.7333,-1.2658 9.6667,-1.6684 6.9244,-0.9503 5.7852,0.2604 -10.1707,10.8098 l -12.2941,8.1285 -10.4343,24.6624 c -5.7388,13.5644 -10.4343,25.4548 -10.4343,26.4232 0,1.0521 0.9391,1.4818 2.3334,1.0676 1.2833,-0.3813 4.0213,-1.0963 6.0845,-1.589 z m -142.4352,-6.4936 c 46.2952,-5.6674 93.1632,-19.0277 128.7529,-36.7025 13.7714,-6.8392 33.253,-17.7923 33.2632,-18.7014 0,-0.3667 -4.5232,-0.4683 -10.0605,-0.2257 -19.3041,0.8454 -42.2233,-6.206 -57.5888,-17.718 -35.0784,-26.281 -49.0223,-84.0995 -34.3016,-142.2319 23.2036,-91.63206 110.5613,-173.40109 235.6188,-220.54521 5.6833,-2.1425 10.3333,-4.32962 10.3333,-4.86024 0,-1.47276 -0.4781,-1.53032 -130.6666,-15.73011 -67.1,-7.31867 -182.6,-19.92612 -256.6667,-28.01656 -74.0666,-8.09044 -145.4666,-15.88503 -158.6666,-17.32131 -13.2,-1.43628 -54.4979,-5.94032 -91.7731,-10.00897 l -67.7731,-7.39757 -4.8936,3.89352 c -9.1449,7.276 -36.9631,36.78256 -45.4061,48.16204 -47.5328,64.06426 -61.4816,140.06071 -42.8285,233.33941 7.8911,39.4609 24.6753,90.8368 33.1031,101.3272 8.6601,10.7796 20.716,22.9066 30.7668,30.948 10.8733,8.6996 24.3553,15.8259 57.4711,30.3778 97.2128,42.7179 188.3852,66.7111 280.6667,73.8609 15.0193,1.1637 74.1973,-0.4353 90.6493,-2.4494 z m 178.098,-110.0402 c 11.6889,-27.4833 21.2527,-50.6838 21.2527,-51.5567 0,-0.8729 -5.85,-3.5271 -13,-5.8982 -27.0251,-8.962 -75.2632,-28.2733 -87.3332,-34.9622 -9.8919,-5.4819 -12.9015,-20.4542 -8.3991,-41.7831 1.0639,-5.0399 3.2093,-15.6828 4.7676,-23.6508 1.5583,-7.968 3.152,-15.318 3.5416,-16.3333 1.7825,-4.6453 -2.078,-1.0463 -6.9103,6.4421 -13.5388,20.9807 -26.8493,53.805 -31.5126,77.7118 -1.1402,5.8445 -1.7767,17.8063 -1.7031,32 0.097,18.8482 0.6055,24.4636 3.0136,33.3333 5.8615,21.5902 17.88,41.7631 32.5017,54.5539 14.4382,12.63 36.2187,20.943 53.4478,20.3994 l 9.0806,-0.2866 z m 318.106,-22.4255 c 2.8047,-1.5154 2.7004,-1.844 -6.1323,-19.3082 -22.0718,-43.6416 -32.0381,-81.3311 -32.049,-121.2002 -0.013,-31.06298 4.1716,-52.97222 14.8748,-77.96365 12.7036,-29.66239 27.7556,-51.20875 54.7254,-78.33751 10.1363,-10.19591 18.2716,-18.66019 18.0787,-18.80951 -1.1976,-0.92664 -75.2963,-6.64042 -115.6843,-8.92045 -31.9684,-1.80473 -188.4878,-2.30851 -195,-0.62763 -2.0166,0.52052 -3.6666,1.41508 -3.6666,1.9879 0,0.57282 21.6,3.36468 48,6.20412 26.4,2.83945 48,5.57754 48,6.08468 0,0.50713 -6.45,3.19152 -14.3334,5.9653 -81.7366,28.75948 -151.3874,73.73911 -196.5805,126.94919 l -9.3105,10.96225 -4.4162,18.37111 c -9.8448,40.9541 -11.869,58.0842 -7.8617,66.5291 3.0105,6.3443 6.8752,8.7414 30.0707,18.6523 84.5138,36.1108 165.9501,56.953 251.7649,64.435 20.2248,1.7634 115.8969,0.9839 119.52,-0.9738 z m -221.52,-329.66749 c 37.3767,-0.98638 52.4481,-1.82671 53.5933,-2.98818 2.2479,-2.27968 18.0866,-39.71385 17.1848,-40.61558 -0.4086,-0.40858 -13.2008,-3.286 -28.4272,-6.39428 -43.3496,-8.84931 -76.5314,-17.6794 -120.6338,-32.10212 -14.4555,-4.7274 -26.641,-9.17471 -27.0787,-9.88291 -2.1165,-3.42477 -3.3036,-0.40097 -3.2892,8.37901 0.035,20.98044 7.4357,35.36007 23.9841,46.59674 l 3.3334,2.2634 -4,0.11986 c -2.2,0.0659 -42.8388,-3.3338 -90.3086,-7.5549 -55.5672,-4.94118 -86.7561,-7.21475 -87.5653,-6.38324 -1.6307,1.67558 -10.1763,29.68577 -9.3185,30.54357 0.3596,0.35963 40.825,5.15233 89.9232,10.65048 82.9841,9.2928 90.7242,9.9524 109.9358,9.36853 11.3667,-0.34544 44.0667,-1.24561 72.6667,-2.00036 z m 83.1233,-3.01772 c 1.6567,-1.99615 13.5359,-32.79732 13.5404,-35.10846 0,-1.77837 -3.333,-2.74398 -13.3861,-3.87412 l -7.2776,-0.81812 -8.1965,19.77386 c -4.5082,10.87561 -7.9228,20.22384 -7.588,20.77384 1.1013,1.80964 21.3336,1.14989 22.9078,-0.747 z m -356.233,-30.253 c 2.4148,-7.7 4.4022,-14.69614 4.4168,-15.54698 0.017,-0.99146 -4.1632,-1.86657 -11.6404,-2.43697 -6.4167,-0.48951 -12.4988,-0.99337 -13.516,-1.11969 -2.4208,-0.30068 -12.824,28.29697 -10.9687,30.15229 1.5313,1.53132 14.698,3.40475 22.068,3.13996 l 5.25,-0.18861 z m 570.4677,-1.579 c 0.5011,-0.50179 -3.39,-7.34448 -8.6468,-15.20598 -16.5032,-24.67998 -25.998,-46.1422 -30.1415,-68.13237 -2.9216,-15.50572 -1.9954,-39.60697 2.0635,-53.69777 3.5532,-12.3352 12.5792,-29.91803 21.3032,-41.49928 9.2593,-12.29172 30.4519,-32.19803 45.8611,-43.07743 7.1604,-5.0555 12.5352,-9.63673 11.944,-10.18052 -1.1332,-1.04245 -62.6719,-5.4885 -114.4082,-8.26577 -19.0333,-1.02173 -69.7288,-1.65552 -133.638,-1.67072 l -102.9713,-0.0245 -12.1453,12 c -23.2171,22.93905 -33.6079,36.59473 -45.1479,59.33333 -17.9112,35.29233 -31.8415,71.14679 -36.5212,94 l -1.9112,9.33333 4.1384,4.3774 c 3.4148,3.61208 7.7568,5.55029 24.8341,11.08587 60.6731,19.667 115.5442,32.97424 172.1148,41.74101 33.5286,5.19593 53.6539,7.29599 101.9143,10.63461 12.0803,0.83571 100.4271,0.18091 101.358,-0.75122 z m -399.8655,-11.51775 c -7.6109,-11.30989 -9.446,-18.62337 -9.4262,-37.56992 0.013,-10.88223 0.8486,-20.60008 2.4129,-28 9.7079,-45.9257 38.4548,-106.86002 88.0133,-186.56057 5.4938,-8.83491 9.5803,-16.31144 9.0814,-16.6145 -0.9986,-0.60654 -63.9326,3.2204 -106.9072,6.50088 -95.79,7.31214 -166.7398,17.19859 -239.4515,33.36621 -29.1342,6.47806 -74.1588,18.46334 -93.1989,24.80902 -25.6531,8.54962 -51.8385,25.2464 -91.2412,58.17867 -30.6133,25.58619 -76.4193,73.02303 -80.9246,83.80579 -2.2185,5.30958 -2.3856,11.69002 -0.4031,15.39423 3.7294,6.96855 1.2879,6.66944 204.6549,25.07136 243.7713,22.05796 321.1376,28.95199 321.5998,28.6574 0.203,-0.1292 -1.6914,-3.29662 -4.2096,-7.03857 z M 960.66666,662.66875 c 41.96144,-10.70953 70.48094,-13.90404 115.77964,-12.9686 35.6936,0.73708 49.7289,2.45475 79.013,9.66973 10.3359,2.54656 19.5284,4.63011 20.4278,4.63011 0.8993,0 5.6426,-3.58421 10.5407,-7.96493 54.8955,-49.0974 143.1156,-99.2966 248.9055,-141.6328 44.0435,-17.6258 107.8729,-40.0502 158.6667,-55.74231 12.4666,-3.85142 22.9166,-7.2255 23.2222,-7.49794 2.2332,-1.99124 -5.441,-0.92515 -39.323,5.46265 -219.6484,41.41037 -403.6513,96.02237 -555.8992,164.99072 -42.41478,19.2139 -102.00001,49.46696 -102.00001,51.7882 0,0.53892 4.65,-0.50744 10.33333,-2.32526 5.68334,-1.81781 19.33334,-5.60212 30.33334,-8.40957 z M 1921.5765,556.38314 c 51.4381,-0.15594 93.9637,-0.75594 94.5013,-1.33334 0.5376,-0.5774 6.2182,-13.34126 12.6235,-28.36414 l 11.6459,-27.31433 -7.8403,-7.05106 c -17.0441,-15.32842 -46.7525,-32.17622 -65.1204,-36.93017 -15.8657,-4.10632 -30.3767,-1.72499 -41.5747,6.82264 -14.4624,11.03941 -25.5445,14.04293 -39.049,10.58324 -10.9224,-2.7982 -16.8218,-6.41391 -34.221,-20.97401 -42.1402,-35.26427 -81.3069,-52.34582 -134.3758,-58.60456 -9.9211,-1.17007 -13.4175,-1.166 -14.6004,0.0169 -2.0894,2.08935 -43.5604,135.21136 -42.4435,136.24334 0.4828,0.44608 8.7253,0.0236 18.3167,-0.93873 34.3028,-3.44189 159.028,-11.8499 160.0861,-10.79176 0.3773,0.37731 -7.4864,13.95451 -17.4749,30.17156 -9.9886,16.21705 -18.5178,30.51957 -18.954,31.78339 -0.4362,1.26381 5.0006,-3.40216 12.0818,-10.36883 l 12.8748,-12.66667 93.5239,-0.28352 z m 126.5899,-37.71648 c 7.9941,-20.9 15.4221,-40.25 16.5066,-43 1.0847,-2.75 1.4616,-5 0.8378,-5 -0.6239,0 -4.5826,8.4 -8.7971,18.66667 -4.2147,10.26666 -8.164,18.66666 -8.7763,18.66666 -0.6124,0 -1.5038,-0.63166 -1.9809,-1.40372 -0.4772,-0.77204 -1.4775,-1.20041 -2.2229,-0.95194 -1.7356,0.57856 -22.3707,49.32478 -21.486,50.75634 0.365,0.59072 3.0758,0.89221 6.0238,0.67 l 5.3602,-0.40401 z m -393.3503,11.02786 c 0.5529,-0.56531 21.0685,-65.52786 45.5904,-144.36119 31.2209,-100.37 44.1877,-143.83291 43.2593,-145 -0.7292,-0.91667 -2.0022,-1.66347 -2.829,-1.65956 -0.827,0.004 -7.971,21.15392 -15.8756,47 -22.7726,74.46054 -20.9107,69.15632 -24.121,68.71321 -2.539,-0.35048 -4.0876,3.26108 -16.4129,38.27968 -7.4852,21.26667 -13.6435,39.71667 -13.6851,41 -0.041,1.28333 0.8244,2.33333 1.9244,2.33333 3.402,0 2.2034,3.3386 -1.732,4.82402 -3.4718,1.31053 -4.7845,4.41913 -18.8438,44.62565 -8.3116,23.76935 -15.4334,44.0632 -15.8262,45.09745 -0.5901,1.55404 0.8708,1.73245 8.4162,1.02787 5.0216,-0.46892 9.5825,-1.31512 10.1353,-1.88046 z m 414.3372,-83.12623 c 11.852,-28.65411 21.2079,-52.6505 20.7908,-53.3253 -1.0855,-1.75637 -21.4615,-13.63753 -35.3541,-20.61485 -16.7574,-8.416 -41.5039,-18.04428 -63.2567,-24.61157 -34.4692,-10.40646 -39.5388,-9.31096 -54.1172,11.69421 -2.1799,3.14093 -5.8953,6.88869 -8.2564,8.32835 -6.1548,3.75269 -17.5981,3.51258 -27.3332,-0.57351 -21.5799,-9.05764 -54.0804,-17.73585 -78.2932,-20.90567 -16.5415,-2.16553 -52.458,-0.8334 -68,2.52208 -16.892,3.64696 -41.8779,12.18347 -43.2095,14.76262 -1.7136,3.31926 -7.2605,22.79878 -6.6578,23.38065 0.2937,0.28351 6.234,1.18565 13.2006,2.00477 55.998,6.58403 97.0279,24.42706 139.3334,60.59327 20.0465,17.13741 33.4065,22.96807 44.9978,19.63823 3.1179,-0.89566 10.0039,-4.61228 15.3024,-8.25915 13.7711,-9.47851 18.4843,-10.95488 35.0331,-10.97368 15.824,-0.018 23.7073,2.28744 46,13.45236 15.9388,7.98269 25.7873,14.81188 37.21,25.80219 5.2012,5.00425 9.8176,9.1177 10.2587,9.141 0.4412,0.0233 10.4992,-23.4019 22.3513,-52.056 z m -0.6712,19.4317 c 0.4221,-1.1 0.2505,-2 -0.3813,-2 -0.6319,0 -1.4942,0.9 -1.9163,2 -0.4221,1.1 -0.2505,2 0.3813,2 0.6319,0 1.4942,-0.9 1.9163,-2 z m 2.6667,-6.66666 c 0.4221,-1.1 0.2505,-2 -0.3814,-2 -0.6318,0 -1.4941,0.9 -1.9162,2 -0.4222,1.1 -0.2506,2 0.3813,2 0.6319,0 1.4941,-0.9 1.9163,-2 z m -448.4822,-10 c 0,-0.73334 -0.6,-1.33334 -1.3333,-1.33334 -0.7333,0 -1.3333,0.6 -1.3333,1.33334 0,0.73333 0.6,1.33333 1.3333,1.33333 0.7333,0 1.3333,-0.6 1.3333,-1.33333 z m 60.0331,-66.0868 c 2.3905,-6.28764 1.7721,-7.60148 -2.3664,-5.0273 -9.0931,5.65599 -10.0475,8.44743 -2.8883,8.44743 3.0179,0 4.2623,-0.80996 5.2547,-3.42013 z M 1718.5646,290.72 c 12.825,-41.87564 15.7722,-52.93682 14.4411,-54.19834 -3.0387,-2.87982 -32.3241,-15.11272 -50.4828,-21.08724 -25.3033,-8.32518 -60.3177,-15.80816 -74.7311,-15.97082 -10.7768,-0.1216 -11.9173,0.13474 -17.2157,3.86973 -3.9088,2.75553 -7.3771,7.09933 -11.1475,13.96195 -9.7328,17.71466 -15.9241,19.24964 -46.278,11.4736 -44.0054,-11.27334 -80.7226,-12.68751 -118.4083,-4.56054 -25.7271,5.54804 -55.4442,18.5001 -81.409,35.48166 -14.1245,9.23777 -18.3493,12.86044 -16.3981,14.06108 0.5857,0.36033 10.6648,0.11466 22.3981,-0.54587 65.9743,-3.71421 115.3535,8.99449 164.9896,42.46339 20.7927,14.02007 30.2429,18.29453 40.3437,18.24786 9.627,-0.0445 15.0094,-2.65141 27.3278,-13.23625 10.9349,-9.39605 20.5625,-12.68169 37.146,-12.67685 24.7696,0.007 64.2084,15.71007 84.8596,33.7875 4.0757,3.56775 5.7009,4.30005 6.8924,3.10555 0.8574,-0.8597 8.81,-25.23908 17.6722,-54.17641 z"
       id="path316" />
  </g>
</svg>
